<?xml version="1.0" encoding="UTF-8" standalone="no"?><!DOCTYPE svg PUBLIC "-//W3C//DTD SVG 1.1//EN" "http://www.w3.org/Graphics/SVG/1.1/DTD/svg11.dtd"><svg width="100%" height="100%" viewBox="0 0 900 900" version="1.1" xmlns="http://www.w3.org/2000/svg" xmlns:xlink="http://www.w3.org/1999/xlink" xml:space="preserve" xmlns:serif="http://www.serif.com/" style="fill-rule:evenodd;clip-rule:evenodd;stroke-linecap:round;stroke-linejoin:round;stroke-miterlimit:1.5;"><rect id="Artboard1" x="0" y="0" width="900" height="900" style="fill:none;"/><g id="Artboard11" serif:id="Artboard1"><circle cx="450" cy="450" r="450" style="fill:#ffb31f;"/><path d="M450,-0c248.362,-0 450,201.638 450,450c0,248.362 -201.638,450 -450,450c-248.362,0 -450,-201.638 -450,-450c-0,-248.362 201.638,-450 450,-450Zm0,12.5c-241.463,0 -437.5,196.037 -437.5,437.5c0,241.463 196.037,437.5 437.5,437.5c241.463,0 437.5,-196.037 437.5,-437.5c0,-241.463 -196.037,-437.5 -437.5,-437.5Z"/><g><path d="M76.785,575.958c-0,0 468.526,-47.152 720.051,0c111.764,20.952 -126.547,30.921 -320.95,29.146c-227.09,-2.072 -424.766,-18.638 -399.101,-29.146Z" style="stroke:#000;stroke-width:50.54px;"/><g id="Montero"><path d="M754.237,500.417l-591.633,2.463c-10.334,0 -42.925,7.185 -40.791,-62.672c1.612,-0.726 8.442,-0.465 8.717,-3.437c1.057,-11.395 1.1,-24.423 17.885,-25.416c-0.156,-16.165 21.48,-25.928 139.047,-33.232c27.599,-18.233 82.797,-54.7 82.797,-54.7c24.811,-10.607 57.74,-11.357 90.759,-11.997l214.335,-0l46.497,8.26c14.006,21.361 25.369,41.559 37.937,64.358c2.161,3.919 4.467,15.207 4.587,16.691c0.74,9.19 -2.615,51.046 -2.615,51.046c1.435,0.289 5.716,0.5 6.966,0.723c18.167,1.456 8.843,45.513 -14.488,47.913Z" style="fill:#581212;stroke:#000;stroke-width:19.59px;"/><path d="M580.535,331.633c34.301,-0.087 67.223,0.084 105.087,2.671c9.45,15.875 14.442,28.621 17.363,43.606c-0.36,4.538 -2.275,7.519 -5.899,8.792c-15.916,3.617 -68.114,1.509 -102.171,1.447c-2.722,-19.848 -5.722,-36.668 -14.38,-56.516Z" style="stroke:#000;stroke-width:4.9px;"/><path d="M464.724,387.797c4.077,-17.79 7.471,-35.829 4.986,-56.005l96.709,0.803c5.621,0.862 15.999,44.658 15.443,55.37" style="stroke:#000;stroke-width:4.9px;"/><path d="M464.724,387.797c4.077,-17.79 7.471,-35.829 4.986,-56.005l96.709,0.803c5.612,0.861 15.965,44.541 15.443,55.338c-0,0.016 -117.138,-0.136 -117.138,-0.136Z" style="stroke:#000;stroke-width:4.9px;"/><path d="M320.126,386.823c20.398,-16.788 48.945,-32.634 72.015,-49.422c17.419,-4.543 41.35,-4.435 63.484,-5.609c2.485,20.176 -0.909,38.215 -4.986,56.005c-41.511,2.323 -89.892,1.155 -130.513,-0.974Z" style="stroke:#000;stroke-width:4.9px;"/><path d="M563.619,492.141c3.504,-73.297 148.387,-89.964 140.38,21.358" style="stroke:#000;stroke-width:19.59px;"/><path d="M164.883,492.661c3.503,-73.298 148.386,-90.484 140.379,20.838" style="stroke:#000;stroke-width:19.59px;"/><g id="Wheel"><circle cx="230.987" cy="512.55" r="55.718" style="stroke:#000;stroke-width:4.9px;"/><circle cx="230.987" cy="512.55" r="26.506" style="fill:#666;stroke:#000;stroke-width:5.97px;"/><circle cx="230.987" cy="512.55" r="8.597" style="stroke:#000;stroke-width:4.9px;"/></g><g id="Wheel1" serif:id="Wheel"><circle cx="634.4" cy="512.55" r="55.718" style="stroke:#000;stroke-width:4.9px;"/><circle cx="634.4" cy="512.55" r="26.506" style="fill:#666;stroke:#000;stroke-width:5.97px;"/><circle cx="634.4" cy="512.55" r="8.597" style="stroke:#000;stroke-width:4.9px;"/></g><g id="Cladding"><path d="M317.204,457.557c0,0 -3.729,-4.669 -0.447,-5.18c3.283,-0.51 241.353,0 241.353,0l-2.992,5.18l-237.914,0Z" style="stroke:#000;stroke-width:4.9px;"/></g><path d="M558.961,294.694l-0,16.732" style="fill:none;stroke:#000;stroke-width:14.69px;"/><path d="M429.621,311.76c11.328,-5.805 30.981,-16.16 42.562,-17.066l181.003,0c10.026,1.007 43.913,21.584 43.913,21.584" style="fill:none;stroke:#000;stroke-width:14.69px;"/></g></g></g></svg>